<svg width="129" height="129" viewBox="0 0 129 129" fill="none" xmlns="http://www.w3.org/2000/svg">
<rect x="23" y="113.636" width="83" height="7.54545" fill="#B6584E"/>
<path d="M38.166 106.3V7.65741H54.7148V47.1144L55.0762 47.259C57.9186 39.9842 65.1211 36.3469 76.6836 36.3469C86.6081 36.3469 93.401 38.7798 97.0625 43.6457C100.772 48.4634 102.627 57.4243 102.627 70.5285C102.627 84.8371 100.748 94.5207 96.9902 99.5793C93.2806 104.59 86.1263 107.095 75.5273 107.095C64.7839 107.095 57.7259 103.193 54.3535 95.3879H53.9922L54.7148 106.3H38.166ZM71.0469 49.4269C60.3034 49.4269 54.9316 56.0995 54.9316 69.4445C54.9316 79.8989 55.847 86.6196 57.6777 89.6066C59.5085 92.5454 63.6517 94.0148 70.1074 94.0148C76.8522 94.0148 81.1641 92.6659 83.043 89.9679C84.9219 87.2219 85.8613 80.9829 85.8613 71.2512C85.8613 62.1939 84.9219 56.2922 83.043 53.5461C81.2122 50.8 77.2135 49.4269 71.0469 49.4269Z" fill="#0E3A90"/>
</svg>
