<?xml version="1.0" encoding="UTF-8" standalone="no"?><!DOCTYPE svg PUBLIC "-//W3C//DTD SVG 1.1//EN" "http://www.w3.org/Graphics/SVG/1.1/DTD/svg11.dtd"><svg width="100%" height="100%" viewBox="0 0 950 950" version="1.1" xmlns="http://www.w3.org/2000/svg" xmlns:xlink="http://www.w3.org/1999/xlink" xml:space="preserve" xmlns:serif="http://www.serif.com/" style="fill-rule:evenodd;clip-rule:evenodd;stroke-linejoin:round;stroke-miterlimit:2;"><g><rect x="0.021" y="2.037" width="947.942" height="713.096" style="fill:#ee2d30;fill-rule:nonzero;"/><path d="M876.425,537.992c-0.633,-3.284 -1.663,-6.505 -3.063,-9.55c-1.175,-2.613 -2.82,-5.017 -4.641,-7.284c-2.592,-3.196 -5.921,-5.796 -5.921,-5.796c0,0 -3.579,-2.97 -7.629,-5.029c-3.283,-1.67 -6.688,-3.083 -10.233,-4.112c-4.359,-1.288 -8.842,-2.217 -13.363,-2.8c-8.433,-1.05 -17.004,-1.025 -17.004,-1.025c-0,-0 -9.463,-0.038 -18.679,1.412c-5.634,0.892 -11.184,2.255 -16.559,4.134c-5.054,1.758 -9.908,4.025 -14.529,6.704c-6.712,3.937 -12.671,9.175 -12.671,9.175l0.992,-16.942l-69.025,0c0,0 0.171,16.013 -0.162,32.017c-0.246,12.496 -0.68,24.992 -1.226,37.504c-0.57,12.817 -1.275,25.613 -2.166,38.408c-1.254,17.388 -3.05,34.754 -3.05,34.754l70.562,0l1.513,-61.533c-0,0 0.158,-10.279 3.316,-19.458c1.6,-4.596 4.263,-8.829 7.667,-12.313c2.913,-2.958 6.75,-5.029 10.788,-6.462c5.945,-2.121 12.758,-1.883 12.758,-1.883c0,-0 5.362,-0.113 10.229,1.337c2.813,0.804 5.475,2.104 7.659,3.95c2.104,1.783 3.762,4.037 4.816,6.554c1.733,4.171 1.659,9.1 1.659,9.1c-0,0 -0.051,1.117 -0.063,2.233c-0.088,1.646 -0.121,3.28 -0.183,4.905c-0.075,2.004 -0.163,3.95 -0.188,5.908c-0.075,2.625 -0.087,5.25 -0.087,5.25l-4.05,62.412l68.52,0c0,0 0.034,-5.387 0.196,-10.749c0.15,-4.909 0.346,-9.813 0.584,-14.73c0.258,-6.141 0.591,-12.337 0.941,-18.466c0.617,-11.038 1.325,-22.046 1.325,-22.046c0,-0 0.396,-4.15 0.73,-8.263c0.274,-2.75 0.483,-5.487 0.645,-8.225c0.209,-2.737 0.384,-5.458 0.496,-8.195c0.159,-4.15 0.159,-8.288 0.159,-8.288c-0,-0 0.075,-6.429 -1.063,-12.608Zm-225.646,-23.025c-7.279,-4.759 -15.791,-7.78 -24.621,-9.538c-20.275,-3.962 -41.579,-3.442 -41.579,-3.442c0,0 -7.867,0 -15.754,0.396c-5.438,0.296 -10.875,0.692 -16.275,1.25c-5.5,0.571 -11.017,1.263 -16.471,2.08c-3.321,0.533 -6.617,1.104 -9.392,1.612l-21.487,41.663c26.033,-6.971 64.196,-10.476 76.037,-10.88c0,0 4.93,-0.054 9.609,0.95c2.058,0.442 4.025,1.288 5.808,2.4c1.179,0.721 2.133,1.821 2.863,3.034c0.779,1.291 0.779,2.975 0.779,2.975c-0,-0 -0.654,4.383 -3.246,7.008c-1.979,2.021 -4.942,3.158 -7.887,4.238c-3.171,1.187 -6.58,1.733 -9.971,2.429c-4.646,0.925 -9.388,1.508 -9.388,1.508c0,0 -13.737,2.542 -27.421,5.438c-4.908,1.041 -9.787,2.179 -14.654,3.445c-2.291,0.605 -4.521,1.35 -6.75,2.142c-1.808,0.617 -3.566,1.45 -3.566,1.45c-0,-0 -6.938,3.071 -12.709,7.579c-3.417,2.663 -6.454,5.783 -8.929,9.313c-2.317,3.283 -4.075,6.987 -5.229,10.875c-1.783,5.883 -1.733,12.35 -1.733,12.35c-0,-0 0.05,8.05 3.345,14.529c2.475,4.854 6.03,9.162 10.417,12.383c5.437,3.963 11.654,6.913 18.192,8.646c12.829,3.392 26.641,3.208 26.641,3.208c0,0 3.629,0 7.234,-0.137c2.504,-0.138 4.966,-0.321 7.433,-0.571c2.538,-0.258 5.079,-0.567 7.579,-0.975c3.904,-0.608 7.767,-1.4 7.767,-1.4l9.042,-29.875c-0,0 -2.205,0.433 -4.434,0.817c-1.312,0.225 -2.625,0.396 -3.942,0.558c-1.112,0.125 -2.216,0.221 -3.329,0.296c-1.287,0.075 -2.562,0.075 -2.562,0.075c-0,-0 -4.004,0.05 -7.704,-0.929c-1.909,-0.496 -3.742,-1.338 -5.342,-2.455c-1.3,-0.925 -2.35,-2.166 -3.096,-3.579c-0.979,-1.829 -1.017,-4.158 -1.017,-4.158c0,0 -0.02,-1.562 0.584,-2.913c0.533,-1.162 1.229,-2.279 2.167,-3.17c1.324,-1.3 2.849,-2.392 4.483,-3.284c3.596,-1.891 7.533,-3.133 7.533,-3.133c0,0 3.788,-1.112 7.579,-2.142c2.525,-0.666 5.067,-1.287 7.592,-1.983c2.542,-0.692 5.067,-1.338 7.533,-2.154c3.713,-1.175 7.305,-2.663 7.305,-2.663c-0,0 -0.234,7.505 -0.667,15.013c-0.288,4.954 -0.696,9.896 -1.067,14.837c-0.358,4.929 -0.792,9.834 -1.15,14.75c-0.521,7.359 -0.917,14.729 -0.917,14.729l65.259,0c-0,0 -0.025,-6.775 0.012,-13.562c0.038,-4.783 0.075,-9.575 0.163,-14.354c0.1,-4.933 0.208,-9.85 0.433,-14.779c0.284,-7.43 0.792,-14.838 0.792,-14.838c-0,0 0.1,-2.971 0.25,-5.921c0.121,-2.65 0.321,-5.287 0.491,-7.95c0.138,-2.466 0.325,-4.904 0.484,-7.383c0.125,-2.067 0.2,-4.15 0.2,-4.15c-0,-0 0.321,-3.379 0.621,-6.75c0.17,-1.746 0.333,-3.492 0.458,-5.225c0.121,-1.35 0.221,-2.75 0.271,-4.1c0.1,-1.783 0.112,-3.517 0.112,-3.517c0,0 0.629,-9.871 -3.025,-17.775c-2.637,-5.746 -6.55,-10.912 -11.754,-14.291Zm-503.033,33.479c0.683,-1.188 1.625,-2.254 2.787,-3.013c1.563,-1 3.321,-1.758 5.155,-2.154c3.874,-0.887 7.974,-0.816 7.974,-0.816c0,-0 3.071,-0.05 6.117,0.195c2.9,0.225 5.8,0.55 8.671,0.955c4.2,0.583 8.375,1.241 12.533,2.012c7.596,1.383 15.113,2.917 17.23,3.363l-15.58,-41.7c-1.054,-0.163 -2.141,-0.313 -3.221,-0.446c-5.166,-0.721 -10.341,-1.313 -15.52,-1.809c-4.742,-0.47 -9.513,-0.791 -14.28,-1.041c-6.341,-0.359 -12.695,-0.359 -12.695,-0.359c-0,0 -18.417,-0.283 -35.821,3.442c-8,1.713 -15.667,4.721 -22.417,9.042c-4.879,3.12 -8.779,7.616 -11.554,12.746c-3.446,6.279 -3.283,14.479 -3.283,14.479c-0,-0 0.271,7.887 3.27,14.566c1.892,4.259 5.038,7.963 8.396,11.442c3.346,3.446 7.396,6.271 11.446,9.017c5.946,4.062 12.421,7.333 12.421,7.333l11.138,5.783c-0,0 3.912,2.192 7.737,4.509c2.058,1.241 4.162,2.416 6.108,3.854c1.496,1.1 2.984,2.229 4.013,3.679c1.187,1.696 1.437,4.012 1.437,4.012c0,0 0.038,1.621 -0.708,2.751c-0.704,1.087 -1.671,2.004 -2.783,2.587c-1.75,0.954 -3.717,1.583 -5.713,1.933c-4.692,0.855 -9.575,0.755 -9.575,0.755c0,-0 -3.9,0.012 -7.787,-0.321c-3.605,-0.313 -7.196,-0.721 -10.788,-1.3c-4.783,-0.746 -9.575,-1.65 -14.333,-2.713c-9.213,-2.071 -18.342,-4.571 -18.342,-4.571l4.063,43.25c-0,0 10.725,1.634 21.512,2.959c5.55,0.683 11.113,1.279 16.658,1.762c4.351,0.396 8.696,0.642 13.055,0.829c5.341,0.246 10.691,0.221 10.691,0.221c0,0 17.4,0.288 33.725,-3.566c7.988,-1.884 15.654,-5.067 22.296,-9.638c5.188,-3.567 9.363,-8.483 12.283,-14.067c3.855,-7.446 3.742,-16.858 3.742,-16.858c0,0 -0.383,-9.783 -4.608,-17.45c-2.663,-4.846 -7.108,-8.671 -11.742,-12.313c-4.729,-3.754 -10.367,-6.441 -15.741,-9.487c-8.188,-4.671 -16.609,-8.892 -16.609,-8.892c0,0 -3.554,-2.02 -6.837,-4.412c-1.325,-0.967 -2.538,-2.067 -3.642,-3.242c-0.604,-0.696 -1.087,-1.5 -1.437,-2.366c-0.334,-0.709 -0.271,-1.588 -0.271,-1.588c-0,-0 0.025,-1.917 0.829,-3.354Zm309.929,-41.567l-40.463,84.717l-22.37,-84.717l-63.813,0l-35.237,84.717l-27.596,-84.717l-62.358,0l53.304,142.683l62.375,0l34.766,-80.262l20.946,80.262l64.259,0l72.841,-142.683l-56.654,0Z" style="fill:#fff;"/><rect x="0" y="736.275" width="947.938" height="213.725" style="fill:#ee2d30;fill-rule:nonzero;"/><path d="M89.35,842.829l4.246,0c6.279,0 11.966,-2.217 11.966,-9.266c0,-5.684 -3.904,-6.875 -8.15,-6.875l-4.67,-0l-3.392,16.141Zm-9.85,-27.35l15.792,0c12.983,0 26.062,1.363 26.062,16.3c0,14.775 -12.054,22.246 -26.321,22.246l-8.062,-0l-4.408,20.708l-15.792,0l12.729,-59.254Z" style="fill:#fff;fill-rule:nonzero;"/><path d="M133.825,811.071l15.458,-0l-13.241,63.662l-15.459,0l13.242,-63.662Z" style="fill:#fff;fill-rule:nonzero;"/><path d="M195.792,863.192c-0.759,3.825 -1.438,7.554 -1.871,11.541l-14.171,0l1.192,-7.208l-0.175,-0c-4.409,4.917 -8.992,8.238 -17.054,8.238c-8.917,-0 -13.763,-6.63 -13.763,-15.284c-0,-2.975 0.262,-4.671 1.192,-9.341l4.075,-20.621l15.791,-0l-4.25,20.708c-0.42,2.204 -1.016,4.421 -1.016,6.7c-0,2.637 1.7,5.267 5.946,5.104c6.454,0 10.266,-5.612 11.37,-12.15l4.334,-20.362l15.287,-0l-6.887,32.675Z" style="fill:#fff;fill-rule:nonzero;"/><path d="M210.742,842.058c0.754,-3.812 1.437,-7.554 1.858,-11.541l13.583,-0l-1.696,8.062l0.175,-0.087c3.73,-5.609 9.413,-9.005 15.617,-9.005c5.179,0 10.442,2.976 11.629,9.005c3.73,-5.609 9.417,-9.005 15.796,-9.005c6.783,0 13.746,3.321 13.746,13.167c-0,2.888 -0.346,6.788 -1.017,9.934l-4.596,22.145l-15.27,0l4.412,-21.475c0.504,-2.291 0.854,-4.671 0.854,-6.441c0,-2.9 -1.362,-4.584 -4.929,-4.584c-6.366,0 -8.067,7.384 -9.079,12.125l-4.338,20.375l-15.27,0l4.408,-21.475c0.508,-2.291 0.854,-4.671 0.854,-6.441c0,-2.9 -1.362,-4.584 -4.929,-4.584c-6.367,0 -8.063,7.384 -9.079,12.125l-4.334,20.375l-15.283,0l6.888,-32.675Z" style="fill:#fff;fill-rule:nonzero;"/><path d="M309.962,864.046c7.221,-0 11.542,-6.875 11.542,-13.763c0,-5.425 -2.45,-9.079 -7.291,-9.079c-7.221,0 -11.546,7.979 -11.546,13.85c-0,4.496 2.204,8.992 7.295,8.992Zm-27.841,10.687c1.012,-2.8 2.041,-6.612 3.058,-11.037l11.717,-52.625l15.025,-0l-5.525,24.796l0.171,-0c3.829,-4.088 8.5,-6.38 14.27,-6.38c10.863,0 16.459,8.326 16.459,18.259c-0,14.517 -7.292,28.017 -23.258,28.017c-7.555,-0 -12.646,-3.063 -15.359,-9.342l-0.175,-0l-2.204,8.312l-14.179,0Z" style="fill:#fff;fill-rule:nonzero;"/><path d="M355.296,812.088l15.441,-0l-2.362,11.208l-15.458,-0l2.379,-11.208Zm-3.904,18.429l15.446,-0l-9.167,44.216l-15.459,0l9.18,-44.216Z" style="fill:#fff;fill-rule:nonzero;"/><path d="M375.754,842.058c0.767,-3.812 1.438,-7.554 1.871,-11.541l14.171,-0l-1.192,7.208l0.175,0c4.409,-4.917 8.992,-8.238 17.067,-8.238c8.908,0 13.75,6.63 13.75,15.284c-0,2.975 -0.258,4.671 -1.188,9.341l-4.079,20.621l-15.792,0l4.251,-20.708c0.42,-2.204 1.016,-4.408 1.016,-6.7c0,-2.637 -1.7,-5.267 -5.946,-5.092c-6.454,0 -10.271,5.6 -11.371,12.125l-4.333,20.375l-15.275,0l6.875,-32.675Z" style="fill:#fff;fill-rule:nonzero;"/><path d="M454.442,841.204c-7.642,0 -11.034,7.471 -11.034,13.675c0,4.583 3.146,8.15 7.975,8.15c7.817,0 11.209,-8.075 11.209,-13.846c-0,-4.67 -2.8,-7.979 -8.15,-7.979Zm-23.854,37.692c3.987,2.292 8.062,3.392 12.82,3.479c10.7,0.175 14.517,-3.9 16.892,-15.196l-0.171,-0.162c-3.396,4.916 -8.4,7.716 -14.429,7.716c-12.137,0 -18.083,-8.396 -18.083,-20.112c-0,-13.663 9.425,-25.134 23.691,-25.134c6.7,0 12.721,2.726 15.271,9.092l0.175,0l1.958,-8.062l14.167,-0c-0.591,2.366 -1.696,5.845 -2.8,10.6l-6.783,30.137c-3.917,17.154 -10.021,22.329 -28.354,22.329c-7.642,0 -12.659,-1.362 -17.325,-2.8l2.971,-11.887Z" style="fill:#fff;fill-rule:nonzero;"/><path d="M556.983,828.896c-3.045,-1.438 -7.221,-2.717 -13.07,-2.717c-6.288,0 -11.38,0.929 -11.38,5.688c0,8.408 23.013,5.262 23.013,23.258c-0,16.388 -15.196,20.638 -28.954,20.638c-6.109,-0 -13.155,-1.451 -18.334,-3.063l3.742,-12.05c3.133,2.033 9.412,3.396 14.592,3.396c4.929,-0 12.658,-0.942 12.658,-7.05c-0,-9.513 -23.012,-5.946 -23.012,-22.667c-0,-15.271 13.412,-19.866 26.4,-19.866c7.3,-0 14.174,0.77 18.162,2.641l-3.817,11.792Z" style="fill:#fff;fill-rule:nonzero;"/><path d="M608.508,863.192c-0.754,3.825 -1.45,7.554 -1.87,11.541l-14.167,0l1.187,-7.208l-0.175,-0c-4.408,4.917 -8.991,8.238 -17.054,8.238c-8.916,-0 -13.758,-6.63 -13.758,-15.284c-0,-2.975 0.258,-4.671 1.187,-9.341l4.075,-20.621l15.792,-0l-4.25,20.708c-0.433,2.204 -1.013,4.421 -1.013,6.7c0,2.637 1.696,5.267 5.946,5.104c6.438,0 10.267,-5.612 11.367,-12.15l4.337,-20.362l15.284,-0l-6.888,32.675Z" style="fill:#fff;fill-rule:nonzero;"/><path d="M642.558,864.046c7.209,-0 11.542,-6.875 11.542,-13.763c-0,-5.425 -2.462,-9.079 -7.308,-9.079c-7.209,0 -11.542,7.979 -11.542,13.85c0,4.496 2.217,8.992 7.308,8.992Zm-18.937,-26.917c0.592,-2.625 0.766,-4.841 0.942,-6.612l13.995,-0l-1.191,7.033l0.175,-0c4.666,-5.683 10.354,-8.063 15.879,-8.063c10.862,0 16.458,8.326 16.458,18.259c0,14.517 -7.296,28.017 -23.246,28.017c-6.712,-0 -11.05,-2.888 -14.271,-8.413l-5.595,25.217l-15.446,-0l12.3,-55.438Z" style="fill:#fff;fill-rule:nonzero;"/><path d="M699.171,864.046c7.208,-0 11.546,-6.875 11.546,-13.763c-0,-5.425 -2.467,-9.079 -7.296,-9.079c-7.221,0 -11.546,7.979 -11.546,13.85c0,4.496 2.196,8.992 7.296,8.992Zm-18.938,-26.917c0.596,-2.625 0.771,-4.841 0.942,-6.612l14.008,-0l-1.187,7.033l0.158,-0c4.671,-5.683 10.354,-8.063 15.879,-8.063c10.863,0 16.475,8.326 16.475,18.259c0,14.517 -7.308,28.017 -23.262,28.017c-6.713,-0 -11.034,-2.888 -14.254,-8.413l-5.613,25.217l-15.458,-0l12.312,-55.438Z" style="fill:#fff;fill-rule:nonzero;"/><path d="M744.667,811.071l15.441,-0l-13.225,63.662l-15.458,0l13.242,-63.662Z" style="fill:#fff;fill-rule:nonzero;"/><path d="M772.754,812.088l15.459,-0l-2.38,11.208l-15.441,-0l2.362,-11.208Zm-3.9,18.429l15.459,-0l-9.18,44.216l-15.446,0l9.167,-44.216Z" style="fill:#fff;fill-rule:nonzero;"/><path d="M822.596,848.425c-0,-4.754 -1.871,-8.742 -7.471,-8.742c-6.625,0 -10.192,4.496 -11.296,8.742l18.767,-0Zm4.075,24.871c-5.35,1.612 -11.05,2.467 -15.446,2.467c-14.787,-0 -22.767,-9.092 -22.767,-20.217c0,-10.267 6.8,-26.059 26.496,-26.059c11.629,0 20.375,5.859 20.375,19.271c0,1.788 -0.521,5.7 -1.117,8.325l-31.312,0c0.163,4.754 2.542,8.484 11.879,8.484c4.075,-0 9.6,-1.017 13.838,-3.059l-1.946,10.788Z" style="fill:#fff;fill-rule:nonzero;"/><path d="M840.333,863.029c3.9,1.696 8.15,2.538 12.396,2.538c2.454,-0 8.571,-0.246 8.571,-3.9c0,-6.28 -18.254,-3.059 -18.254,-17.65c-0,-10.367 12.05,-14.53 22.329,-14.53c3.817,0 9.167,0.855 14.692,2.638l-3.234,10.008c-3.916,-1.608 -7.641,-2.45 -12.225,-2.45c-3.396,0 -7.133,0.767 -7.133,3.813c0,4.929 19.108,4.583 19.108,15.704c0,10.95 -9.262,16.388 -20.721,16.563c-6.7,0.075 -13.833,-0.942 -18.591,-2.292l3.062,-10.442Z" style="fill:#fff;fill-rule:nonzero;"/></g></svg>