<svg width="24" height="24" viewBox="0 0 24 24" fill="none" xmlns="http://www.w3.org/2000/svg">
<path d="M7.09091 2.70617V0.0457343C7.09091 0.020476 7.11126 0 7.13636 0H7.59871C7.62282 0 7.64594 0.00963682 7.66299 0.0267905L17.4545 9.87859L21.2461 6.0637C21.2631 6.04655 21.2863 6.03691 21.3104 6.03691L23.9545 6.03691C23.9797 6.03691 24 6.05739 24 6.08265V6.54784C24 6.57209 23.9904 6.59536 23.9734 6.61251L13.6364 17.0131L17.4279 20.828C17.445 20.8452 17.4545 20.8684 17.4545 20.8927V23.5531C17.4545 23.5784 17.4342 23.5988 17.4091 23.5988H16.9467C16.9226 23.5988 16.8995 23.5892 16.8825 23.5721L8.20844 14.8447C8.1914 14.8275 8.18182 14.8043 8.18182 14.78V12.6605C8.18182 12.6363 8.1914 12.613 8.20844 12.5959L8.69513 12.1062C8.71288 12.0883 8.74166 12.0883 8.75941 12.1062L12 15.3667L15.8182 11.525L12 7.68334L2.7539 16.9863C2.73685 17.0035 2.71373 17.0131 2.68962 17.0131H0.0454546C0.0203508 17.0131 0 16.9926 0 16.9674V16.5022C0 16.4779 0.00957799 16.4547 0.0266268 16.4375L10.3636 6.03691L7.11754 2.77084C7.10049 2.75369 7.09091 2.73043 7.09091 2.70617Z" fill="black"/>
</svg>
